<svg width="145" height="36" viewBox="0 0 674 163" fill="none" xmlns="http://www.w3.org/2000/svg">
<path d="M64.5071 96.957L129.862 161.973H64.5071V96.957Z" fill="#006CFF"/>
<path d="M187.46 59.5745L162.682 81.7876L145.989 65.1097L129.863 81.505V113.73L64.7902 48.9971L32.5369 81.2223V162.35H0.000732422V65.1097L64.7902 0.376709L113.453 48.9971L145.989 16.4893L187.46 59.5745Z" fill="#001746"/>
<path d="M191.265 92.2272L192.252 161.964H162.709V81.6682L218.186 31.0084L262.717 70.9304L246.093 92.2272L218.186 68.3594L191.265 92.2272Z" fill="#001746"/>
<path d="M162.653 138.41H246.375V162.089H162.653V138.41Z" fill="#001746"/>
<rect x="206.065" y="98.0991" width="11.5577" height="11.5577" fill="#006CFF"/>
<rect x="220.441" y="98.0991" width="11.5577" height="11.5577" fill="#006CFF"/>
<rect x="220.441" y="112.476" width="11.5577" height="11.5577" fill="#006CFF"/>
<rect x="206.065" y="112.476" width="11.5577" height="11.5577" fill="#006CFF"/>
<path d="M361.558 85.0337C363.639 92.9426 369.884 97.3134 378.835 97.3134C384.871 97.3134 390.7 95.2321 396.112 91.0695L403.189 102.517C395.903 108.552 387.577 111.674 378.418 111.674C359.268 112.091 344.281 97.3134 344.697 79.4141C344.281 61.5149 359.06 46.7376 376.961 47.1538C394.03 47.1538 406.103 59.6417 406.103 75.8759C406.103 78.7898 405.687 81.9117 405.062 85.0337H361.558ZM389.659 73.1702C389.451 65.4694 383.622 60.6823 376.337 60.6823C369.259 60.6823 363.431 65.4694 361.558 73.1702H389.659Z" fill="#006CFF"/>
<path d="M451.689 110.217L438.575 90.4448L425.253 110.217H406.519L429 78.3732L407.976 48.4023H426.71L438.575 66.3016L450.232 48.4023H468.966L447.734 78.1651L470.423 110.009H451.689V110.217Z" fill="#006CFF"/>
<path d="M514.553 110.217C510.598 111.257 506.643 111.673 502.896 111.673C487.284 111.673 478.125 103.973 478.125 88.5709V62.7627H468.342V48.6098H478.125V33H494.986V48.6098H512.471V62.7627H494.986V87.114C494.986 94.1904 498.525 96.688 506.435 96.688C507.475 96.688 509.973 96.4799 514.344 96.2717V110.217H514.553Z" fill="#006CFF"/>
<path d="M560.348 63.3871H555.769C545.569 63.3871 539.116 68.7985 539.116 79.4132V110.217H522.255V48.6099H537.659V55.8944C541.822 50.6912 547.651 47.7773 554.52 47.7773C556.601 47.7773 558.475 47.9855 559.932 48.6099V63.3871H560.348Z" fill="#001746"/>
<path d="M578.872 85.0337C580.953 92.9426 587.198 97.3134 596.149 97.3134C602.185 97.3134 608.014 95.2321 613.426 91.0695L620.503 102.517C613.218 108.552 604.891 111.674 595.732 111.674C576.582 112.091 561.595 97.3134 562.011 79.4141C561.595 61.5149 576.374 46.7376 594.275 47.1538C611.344 47.1538 623.417 59.6417 623.417 75.8759C623.417 78.7898 623.001 81.9117 622.377 85.0337H578.872ZM606.973 73.1702C606.765 65.4694 600.936 60.6823 593.651 60.6823C586.574 60.6823 580.745 65.4694 578.872 73.1702H606.973Z" fill="#001746"/>
<path d="M632.993 89.4032C638.405 95.0228 644.234 97.7285 650.27 97.7285C654.85 97.7285 658.18 96.0634 658.18 92.5252C658.18 89.8195 656.515 88.9869 651.727 86.9056L645.066 84.2C633.826 79.6211 628.205 74.4178 628.205 65.4682C628.205 53.8129 637.364 46.9446 650.895 46.9446C660.053 46.9446 667.547 50.0665 673.167 56.1023L664.633 66.5089C660.47 62.5544 655.89 60.6812 650.895 60.6812C646.731 60.6812 644.234 62.1381 644.234 65.0519C644.234 67.3414 645.899 68.5902 650.686 70.4633L656.723 72.9609C668.588 77.7479 674 82.7431 674 91.6927C674 97.7285 671.71 102.724 667.131 106.054C662.551 109.592 656.931 111.257 649.854 111.257C639.03 111.257 629.871 106.678 624.25 99.3935L632.993 89.4032Z" fill="#001746"/>
<path d="M338.035 110.633H321.174V74.4183C321.174 67.3419 316.595 62.3468 309.726 62.3468C302.856 62.3468 297.861 67.1338 297.861 74.4183V110.633H281V48.6101H296.612V54.2297C300.983 49.8589 307.436 47.1532 314.721 47.1532C329.084 47.1532 338.035 57.1435 338.035 72.1289V110.633Z" fill="#006CFF"/>
<path fill-rule="evenodd" clip-rule="evenodd" d="M294.404 128.297C294.404 128.41 293.862 128.5 293.185 128.5C292.508 128.5 291.967 128.59 291.967 128.703C291.967 128.815 291.647 128.906 291.256 128.906C290.865 128.906 290.545 128.997 290.545 129.109C290.545 129.221 290.411 129.312 290.248 129.312C290.084 129.312 289.513 129.553 288.978 129.849C288.444 130.144 287.732 130.573 287.397 130.804C287.062 131.033 286.64 131.386 286.46 131.587C286.279 131.787 286.069 131.951 285.993 131.951C285.918 131.951 285.631 132.176 285.357 132.45C285.083 132.724 284.859 133.002 284.859 133.067C284.859 133.133 284.676 133.383 284.453 133.622C284.229 133.862 284.046 134.178 284.046 134.325C284.046 134.471 283.969 134.591 283.874 134.591C283.779 134.591 283.537 134.956 283.336 135.403C283.134 135.85 282.892 136.215 282.797 136.215C282.702 136.215 282.625 136.392 282.625 136.609C282.625 136.826 282.533 137.06 282.422 137.129C282.31 137.198 282.219 137.472 282.219 137.738C282.219 138.004 282.137 138.272 282.038 138.333C281.938 138.394 281.795 138.788 281.72 139.208C281.645 139.628 281.535 140.497 281.476 141.139C281.418 141.781 281.287 142.306 281.185 142.306C281.083 142.306 281 143.528 281 145.035C281 146.635 281.084 147.816 281.203 147.889C281.315 147.958 281.406 148.391 281.406 148.851C281.406 149.311 281.491 149.968 281.595 150.311C281.7 150.654 281.898 151.346 282.037 151.848C282.176 152.351 282.365 152.849 282.457 152.955C282.549 153.061 282.625 153.312 282.625 153.513C282.625 153.714 282.698 153.879 282.789 153.879C282.879 153.879 283.123 154.265 283.331 154.737C283.54 155.209 283.877 155.774 284.081 155.994C284.286 156.212 284.453 156.468 284.453 156.562C284.453 156.655 284.851 157.13 285.339 157.618C285.826 158.105 286.717 158.833 287.319 159.236C287.92 159.639 288.523 160.06 288.658 160.172C288.793 160.284 289.044 160.376 289.217 160.376C289.389 160.376 289.53 160.467 289.53 160.579C289.53 160.69 289.758 160.782 290.037 160.782C290.317 160.782 290.545 160.873 290.545 160.985C290.545 161.096 290.865 161.188 291.256 161.188C291.647 161.188 291.967 161.279 291.967 161.391C291.967 161.503 292.451 161.594 293.043 161.594C293.635 161.594 294.217 161.691 294.336 161.811C294.476 161.95 295.303 161.991 296.662 161.924C297.821 161.868 299.25 161.761 299.836 161.688C300.423 161.615 300.903 161.472 300.903 161.371C300.903 161.27 301.268 161.188 301.715 161.188C302.162 161.188 302.527 161.096 302.527 160.985C302.527 160.873 302.71 160.782 302.934 160.782C303.157 160.782 303.34 160.69 303.34 160.579C303.34 160.467 303.523 160.376 303.746 160.376C303.969 160.376 304.152 160.307 304.152 160.222C304.152 160.138 304.404 159.955 304.711 159.816C305.018 159.678 305.529 159.358 305.846 159.107C306.163 158.856 306.711 158.359 307.064 158.003C307.417 157.647 308.003 156.943 308.366 156.438C308.729 155.933 309.026 155.425 309.026 155.308C309.026 155.192 309.118 155.097 309.229 155.097C309.341 155.097 309.432 154.922 309.432 154.708C309.432 154.494 309.516 154.288 309.618 154.251C309.721 154.214 309.868 153.841 309.946 153.422C310.073 152.737 310.044 152.661 309.655 152.661C309.418 152.661 309.065 152.571 308.871 152.462C308.677 152.353 307.796 152.029 306.913 151.742C306.03 151.456 305.246 151.294 305.17 151.382C305.094 151.471 304.873 151.975 304.679 152.502C304.485 153.029 304.056 153.76 303.726 154.127C303.396 154.493 302.852 155.074 302.516 155.418C302.181 155.762 301.534 156.241 301.08 156.484C300.626 156.726 300.081 156.924 299.868 156.924C299.655 156.924 299.481 157.016 299.481 157.127C299.481 157.253 298.398 157.33 296.638 157.33C294.878 157.33 293.795 157.253 293.795 157.127C293.795 157.016 293.52 156.924 293.185 156.924C292.85 156.924 292.576 156.833 292.576 156.721C292.576 156.61 292.393 156.518 292.17 156.518C291.946 156.518 291.764 156.427 291.764 156.315C291.764 156.203 291.627 156.112 291.46 156.112C291.294 156.112 290.625 155.587 289.975 154.945C289.324 154.303 288.662 153.48 288.502 153.117C288.343 152.755 288.143 152.458 288.059 152.458C287.974 152.458 287.905 152.275 287.905 152.051C287.905 151.828 287.814 151.645 287.702 151.645C287.59 151.645 287.499 151.371 287.499 151.036C287.499 150.701 287.407 150.427 287.296 150.427C287.184 150.427 287.093 150.205 287.093 149.933C287.093 149.661 286.998 149.189 286.882 148.885C286.766 148.58 286.67 146.962 286.668 145.288C286.666 143.615 286.772 141.779 286.903 141.21C287.035 140.64 287.223 139.969 287.321 139.717C287.419 139.466 287.602 139.009 287.729 138.702C287.856 138.395 288.061 137.915 288.186 137.636C288.311 137.357 288.527 137.008 288.667 136.861C288.806 136.713 288.92 136.521 288.92 136.435C288.92 136.348 289.091 136.08 289.3 135.84C289.508 135.6 289.737 135.403 289.809 135.403C289.881 135.403 290.227 135.129 290.577 134.794C290.928 134.459 291.338 134.185 291.489 134.185C291.64 134.185 291.764 134.11 291.764 134.019C291.764 133.928 292.087 133.7 292.481 133.512C292.876 133.324 293.373 133.17 293.586 133.17C293.799 133.17 294.03 133.078 294.099 132.967C294.173 132.848 295.32 132.764 296.853 132.764C298.47 132.764 299.481 132.842 299.481 132.967C299.481 133.078 299.65 133.17 299.856 133.17C300.062 133.17 300.508 133.308 300.847 133.477C301.186 133.646 301.977 134.277 302.604 134.881C303.232 135.484 303.746 136.122 303.746 136.299C303.746 136.476 303.815 136.622 303.898 136.622C303.982 136.622 304.215 137.024 304.417 137.514L304.783 138.405L306.245 137.697C307.049 137.308 307.865 136.907 308.059 136.806C308.253 136.704 308.55 136.621 308.719 136.621C308.888 136.621 309.026 136.53 309.026 136.418C309.026 136.306 309.165 136.215 309.335 136.215C309.569 136.215 309.61 136.081 309.506 135.657C309.431 135.35 309.292 135.068 309.198 135.031C309.103 134.993 309.026 134.877 309.026 134.773C309.026 134.668 308.775 134.197 308.468 133.727C308.161 133.256 307.446 132.413 306.879 131.853C306.312 131.293 305.672 130.724 305.457 130.589C305.242 130.454 304.666 130.111 304.177 129.828C303.688 129.544 303.117 129.312 302.908 129.312C302.699 129.312 302.527 129.221 302.527 129.109C302.527 128.997 302.253 128.906 301.918 128.906C301.583 128.906 301.309 128.815 301.309 128.703C301.309 128.588 300.734 128.5 299.989 128.5C299.244 128.5 298.669 128.411 298.669 128.297C298.669 128.174 297.822 128.094 296.536 128.094C295.25 128.094 294.404 128.174 294.404 128.297ZM328.929 128.297C328.929 128.41 328.387 128.5 327.71 128.5C327.033 128.5 326.492 128.59 326.492 128.703C326.492 128.815 326.177 128.906 325.793 128.906C325.409 128.906 325.038 128.997 324.969 129.109C324.9 129.221 324.666 129.312 324.449 129.312C324.232 129.312 324.055 129.403 324.055 129.515C324.055 129.627 323.91 129.718 323.734 129.718C323.557 129.718 322.895 130.058 322.261 130.474C321.628 130.89 320.625 131.731 320.032 132.341C319.439 132.952 318.802 133.708 318.617 134.022C318.432 134.335 318.209 134.591 318.121 134.591C318.034 134.591 317.962 134.734 317.962 134.91C317.962 135.085 317.821 135.37 317.648 135.543C317.475 135.716 317.28 136.121 317.216 136.443C317.152 136.764 317.019 137.027 316.921 137.027C316.824 137.027 316.744 137.211 316.744 137.436C316.744 137.661 316.663 138.004 316.565 138.197C316.467 138.391 316.278 138.894 316.145 139.315C316.011 139.736 315.772 141.196 315.612 142.561C315.359 144.727 315.361 145.368 315.622 147.613C315.787 149.028 316.009 150.4 316.115 150.662C316.22 150.923 316.425 151.572 316.57 152.102C316.714 152.633 316.904 153.067 316.991 153.067C317.078 153.067 317.15 153.212 317.15 153.39C317.15 153.569 317.422 154.209 317.754 154.815C318.086 155.42 318.475 156.056 318.617 156.229C318.759 156.402 319.442 157.109 320.133 157.8C320.824 158.491 321.509 159.15 321.656 159.264C321.803 159.379 322.27 159.676 322.696 159.924C323.121 160.172 323.601 160.376 323.762 160.376C323.923 160.376 324.055 160.467 324.055 160.579C324.055 160.69 324.238 160.782 324.461 160.782C324.684 160.782 324.867 160.873 324.867 160.985C324.867 161.096 325.233 161.188 325.679 161.188C326.126 161.188 326.492 161.279 326.492 161.391C326.492 161.503 326.989 161.594 327.597 161.594C328.205 161.594 328.758 161.685 328.827 161.797C328.898 161.911 329.875 162 331.061 162C332.248 162 333.225 161.911 333.295 161.797C333.364 161.685 333.918 161.594 334.526 161.594C335.134 161.594 335.631 161.503 335.631 161.391C335.631 161.279 335.951 161.188 336.342 161.188C336.733 161.188 337.052 161.096 337.052 160.985C337.052 160.873 337.23 160.782 337.446 160.782C337.663 160.782 338.371 160.495 339.02 160.144C339.669 159.793 340.612 159.177 341.114 158.775C341.617 158.373 342.214 157.861 342.442 157.637C342.669 157.412 343.137 156.818 343.481 156.315C343.825 155.813 344.393 154.832 344.744 154.136C345.095 153.439 345.505 152.48 345.656 152.004C345.807 151.527 346.03 150.772 346.152 150.326C346.274 149.879 346.442 148.965 346.524 148.295C346.606 147.625 346.673 146.164 346.673 145.047C346.673 143.93 346.605 142.468 346.522 141.798C346.439 141.128 346.19 139.941 345.968 139.159C345.746 138.377 345.231 137.03 344.822 136.164C344.414 135.299 344.006 134.591 343.917 134.591C343.827 134.591 343.754 134.477 343.754 134.337C343.754 134.198 343.542 133.837 343.284 133.537C343.025 133.236 342.638 132.757 342.424 132.471C342.209 132.185 341.938 131.951 341.822 131.951C341.705 131.951 341.478 131.769 341.317 131.545C341.156 131.322 340.954 131.139 340.869 131.139C340.783 131.139 340.533 130.985 340.312 130.797C340.092 130.608 339.447 130.197 338.878 129.883C338.31 129.569 337.666 129.312 337.448 129.312C337.231 129.312 337.052 129.221 337.052 129.109C337.052 128.997 336.733 128.906 336.342 128.906C335.951 128.906 335.631 128.815 335.631 128.703C335.631 128.59 335.089 128.5 334.412 128.5C333.735 128.5 333.194 128.41 333.194 128.297C333.194 128.174 332.347 128.094 331.061 128.094C329.775 128.094 328.929 128.174 328.929 128.297ZM518.817 128.297C518.817 128.41 518.275 128.5 517.598 128.5C516.921 128.5 516.38 128.59 516.38 128.703C516.38 128.815 516.15 128.906 515.869 128.906C515.588 128.906 515.2 128.987 515.006 129.086C514.812 129.185 514.121 129.527 513.47 129.847C512.819 130.167 512.114 130.589 511.904 130.784C511.694 130.979 511.447 131.139 511.356 131.139C511.264 131.139 511.057 131.322 510.896 131.545C510.735 131.769 510.526 131.951 510.431 131.951C510.336 131.951 510.15 132.068 510.019 132.21C509.887 132.353 509.482 132.85 509.119 133.315C508.756 133.78 508.459 134.258 508.459 134.376C508.459 134.494 508.386 134.591 508.297 134.591C508.207 134.591 507.783 135.345 507.353 136.266C506.923 137.187 506.501 138.124 506.414 138.347C506.327 138.57 506.197 139.027 506.125 139.362C506.053 139.697 505.892 140.656 505.768 141.494C505.644 142.331 505.542 143.93 505.542 145.047C505.542 146.164 505.644 147.762 505.768 148.6C505.892 149.437 506.053 150.397 506.125 150.732C506.197 151.067 506.328 151.524 506.416 151.747C506.503 151.97 506.839 152.742 507.162 153.462C507.484 154.181 508.101 155.319 508.531 155.989C508.962 156.659 509.602 157.477 509.953 157.806C510.304 158.135 511.057 158.757 511.626 159.187C512.194 159.618 512.765 159.97 512.895 159.97C513.024 159.97 513.13 160.061 513.13 160.173C513.13 160.284 513.313 160.376 513.536 160.376C513.76 160.376 513.943 160.467 513.943 160.579C513.943 160.69 514.171 160.782 514.45 160.782C514.73 160.782 514.958 160.873 514.958 160.985C514.958 161.096 515.278 161.188 515.669 161.188C516.06 161.188 516.38 161.279 516.38 161.391C516.38 161.503 516.864 161.594 517.456 161.594C518.048 161.594 518.63 161.691 518.749 161.811C518.889 161.95 519.714 161.99 521.074 161.923C522.234 161.865 523.709 161.759 524.351 161.687C524.993 161.615 525.519 161.474 525.519 161.372C525.519 161.271 525.839 161.188 526.229 161.188C526.62 161.188 526.94 161.096 526.94 160.985C526.94 160.873 527.123 160.782 527.346 160.782C527.57 160.782 527.753 160.69 527.753 160.579C527.753 160.467 527.935 160.376 528.159 160.376C528.382 160.376 528.565 160.284 528.565 160.173C528.565 160.061 528.663 159.97 528.782 159.97C528.902 159.97 529.409 159.688 529.909 159.344C530.409 159 531.111 158.411 531.469 158.036C531.826 157.66 532.214 157.233 532.33 157.087C532.447 156.942 532.835 156.395 533.194 155.873C533.552 155.35 533.845 154.787 533.845 154.62C533.845 154.455 533.929 154.288 534.031 154.251C534.134 154.214 534.277 153.863 534.349 153.472L534.481 152.762L532.285 152.051C531.077 151.66 529.991 151.315 529.873 151.283C529.755 151.251 529.394 151.799 529.07 152.501C528.746 153.203 528.266 154.006 528.003 154.285C527.741 154.564 527.238 155.09 526.886 155.454C526.533 155.818 525.99 156.229 525.679 156.367C525.367 156.505 525.112 156.686 525.112 156.771C525.112 156.855 524.838 156.924 524.503 156.924C524.168 156.924 523.894 157.016 523.894 157.127C523.894 157.253 522.811 157.33 521.051 157.33C519.291 157.33 518.207 157.253 518.207 157.127C518.207 157.016 517.933 156.924 517.598 156.924C517.263 156.924 516.989 156.833 516.989 156.721C516.989 156.61 516.806 156.518 516.583 156.518C516.359 156.518 516.177 156.427 516.177 156.315C516.177 156.203 516.056 156.112 515.909 156.112C515.762 156.112 515.1 155.584 514.437 154.939C513.774 154.294 513.118 153.563 512.978 153.315C512.838 153.067 512.643 152.704 512.545 152.508C512.446 152.313 512.274 151.925 512.162 151.645C512.05 151.366 511.846 150.727 511.708 150.224C511.571 149.722 511.377 149.046 511.279 148.722C511.18 148.398 511.099 146.81 511.099 145.192C511.099 143.575 511.199 141.876 511.32 141.416C511.442 140.956 511.677 140.108 511.842 139.53C512.008 138.952 512.456 137.959 512.84 137.323C513.223 136.687 513.536 136.125 513.536 136.074C513.536 136.024 513.667 135.852 513.827 135.693C513.986 135.534 514.17 135.403 514.235 135.403C514.299 135.403 514.639 135.129 514.99 134.794C515.341 134.459 515.751 134.185 515.902 134.185C516.053 134.185 516.177 134.111 516.177 134.021C516.177 133.931 516.527 133.702 516.956 133.513C517.384 133.324 517.881 133.17 518.061 133.17C518.24 133.17 518.443 133.078 518.512 132.967C518.585 132.849 519.7 132.764 521.167 132.764C522.558 132.764 523.855 132.847 524.049 132.95C524.243 133.052 524.753 133.288 525.182 133.476C525.611 133.663 526.457 134.298 527.061 134.887C527.664 135.477 528.159 136.108 528.159 136.29C528.159 136.472 528.227 136.622 528.311 136.622C528.395 136.622 528.628 137.022 528.829 137.511L529.194 138.399L530.25 137.899C530.831 137.625 531.658 137.225 532.088 137.01C532.517 136.796 532.997 136.621 533.154 136.621C533.311 136.621 533.439 136.53 533.439 136.418C533.439 136.306 533.578 136.215 533.748 136.215C533.982 136.215 534.023 136.081 533.919 135.657C533.844 135.35 533.727 135.053 533.66 134.997C533.592 134.941 533.355 134.543 533.132 134.112C532.91 133.681 532.176 132.767 531.501 132.081C530.826 131.396 530.095 130.724 529.877 130.589C529.658 130.454 529.079 130.111 528.59 129.828C528.101 129.544 527.581 129.312 527.434 129.312C527.288 129.312 527.111 129.221 527.042 129.109C526.973 128.997 526.648 128.906 526.319 128.906C525.99 128.906 525.722 128.815 525.722 128.703C525.722 128.59 525.18 128.5 524.503 128.5C523.826 128.5 523.285 128.41 523.285 128.297C523.285 128.174 522.405 128.094 521.051 128.094C519.697 128.094 518.817 128.174 518.817 128.297ZM354.924 145.047V161.594H357.26H359.595L359.588 151.189C359.583 145.466 359.499 139.332 359.401 137.559C359.303 135.785 359.273 134.204 359.334 134.044C359.4 133.872 359.647 134.23 359.948 134.934C360.225 135.583 360.498 136.366 360.554 136.674C360.611 136.983 360.738 137.285 360.837 137.346C360.936 137.407 361.017 137.675 361.017 137.941C361.017 138.207 361.108 138.481 361.22 138.55C361.332 138.619 361.423 138.898 361.423 139.171C361.423 139.444 361.514 139.667 361.626 139.667C361.738 139.667 361.829 139.821 361.829 140.008C361.829 140.196 362.018 140.904 362.249 141.582C362.48 142.259 362.752 142.996 362.854 143.22C362.956 143.443 363.275 144.311 363.563 145.148C363.851 145.986 364.166 146.854 364.264 147.077C364.363 147.301 364.636 148.077 364.872 148.803C365.108 149.529 365.388 150.281 365.494 150.475C365.601 150.669 365.688 150.997 365.688 151.203C365.688 151.409 365.75 151.64 365.826 151.715C365.901 151.791 366.167 152.423 366.415 153.12C366.664 153.816 367.228 155.415 367.668 156.673C368.109 157.931 368.529 159.02 368.602 159.093C368.675 159.165 368.734 159.433 368.734 159.687C368.734 159.941 368.814 160.198 368.911 160.258C369.008 160.318 369.143 160.643 369.211 160.981L369.333 161.594H371.548H373.762L373.973 161.036C374.09 160.728 374.337 160.02 374.524 159.462C374.71 158.904 374.946 158.288 375.048 158.094C375.15 157.901 375.233 157.558 375.233 157.333C375.233 157.108 375.324 156.924 375.436 156.924C375.548 156.924 375.639 156.74 375.639 156.515C375.639 156.291 375.72 155.948 375.817 155.754C375.915 155.56 376.104 155.036 376.237 154.589C376.37 154.143 376.559 153.595 376.657 153.371C376.755 153.148 377.105 152.189 377.435 151.239C377.765 150.29 378.37 148.554 378.779 147.382C379.188 146.209 379.602 145.067 379.7 144.844C379.798 144.621 380.072 143.844 380.31 143.118C380.548 142.392 380.819 141.616 380.912 141.392C381.005 141.169 381.204 140.667 381.354 140.276C381.503 139.885 381.628 139.519 381.63 139.464C381.633 139.408 381.756 139.042 381.904 138.651C382.051 138.261 382.239 137.804 382.32 137.636C382.402 137.469 382.691 136.624 382.963 135.759C383.236 134.894 383.527 134.186 383.611 134.186C383.694 134.185 383.763 140.352 383.763 147.889V161.594H386.098H388.434V145.047V128.5H384.6H380.766L380.521 129.16C380.386 129.523 380.193 129.978 380.09 130.172C379.988 130.366 379.904 130.664 379.904 130.835C379.904 131.005 379.815 131.304 379.705 131.497C379.595 131.691 379.143 132.946 378.699 134.286C378.255 135.626 377.478 137.91 376.972 139.362C376.466 140.814 376.051 142.161 376.049 142.357C376.047 142.552 375.954 142.712 375.842 142.712C375.731 142.712 375.639 142.896 375.639 143.121C375.639 143.346 375.556 143.688 375.455 143.882C375.354 144.076 375.13 144.692 374.959 145.25C374.787 145.808 374.472 146.768 374.259 147.382C374.046 147.996 373.675 149.104 373.435 149.845C373.195 150.585 372.999 151.379 372.999 151.609C372.999 151.839 372.908 152.084 372.796 152.153C372.684 152.222 372.593 152.547 372.593 152.876C372.593 153.204 372.502 153.473 372.39 153.473C372.278 153.473 372.187 153.707 372.187 153.994C372.187 154.28 372.092 154.691 371.977 154.907C371.861 155.123 371.678 155.3 371.57 155.3C371.463 155.3 371.374 155.156 371.374 154.981C371.374 154.806 371.051 153.641 370.656 152.392C370.261 151.144 369.837 149.757 369.714 149.311C369.59 148.864 369.225 147.676 368.901 146.671C368.578 145.666 368.226 144.685 368.118 144.491C368.01 144.298 367.922 143.999 367.922 143.829C367.922 143.658 367.834 143.36 367.727 143.166C367.62 142.972 367.204 141.809 366.804 140.58C366.403 139.352 365.994 138.164 365.895 137.941C365.796 137.718 365.521 136.941 365.285 136.215C365.049 135.489 364.769 134.737 364.663 134.543C364.557 134.349 364.469 134.051 364.469 133.88C364.469 133.71 364.382 133.411 364.276 133.218C364.169 133.024 363.842 132.134 363.548 131.241C363.254 130.348 362.918 129.365 362.803 129.058L362.592 128.5H358.758H354.924V145.047ZM398.791 145.047V161.594H401.127H403.462V151.287C403.462 145.618 403.366 139.537 403.249 137.774C403.132 136.012 403.097 134.376 403.172 134.14C403.292 133.763 403.346 133.809 403.611 134.506C403.777 134.944 404.245 136.261 404.65 137.433C405.055 138.606 405.456 139.596 405.541 139.633C405.627 139.67 405.696 139.847 405.696 140.025C405.696 140.204 405.885 140.904 406.116 141.582C406.347 142.259 406.62 142.996 406.722 143.22C406.825 143.443 407.281 144.676 407.735 145.961C408.189 147.245 408.788 148.981 409.066 149.818C409.344 150.656 409.655 151.524 409.757 151.747C409.858 151.97 410.076 152.564 410.242 153.067C410.408 153.569 410.781 154.62 411.072 155.401C411.363 156.183 411.878 157.599 412.217 158.548C412.556 159.498 412.922 160.571 413.031 160.934L413.23 161.594H415.43H417.629L417.851 161.036C417.972 160.728 418.344 159.655 418.676 158.65C419.008 157.645 419.52 156.137 419.814 155.3C420.107 154.462 420.427 153.595 420.525 153.371C420.622 153.148 420.972 152.189 421.302 151.239C421.632 150.29 422.237 148.554 422.646 147.382C423.055 146.209 423.472 145.067 423.572 144.844C423.672 144.621 423.982 143.753 424.26 142.915C424.538 142.078 425.149 140.342 425.619 139.058C426.088 137.773 426.663 136.153 426.898 135.456C427.133 134.759 427.391 134.188 427.47 134.187C427.55 134.186 427.558 140.104 427.488 147.34C427.419 154.575 427.424 160.742 427.5 161.044L427.638 161.594H429.969H432.301V145.047V128.5H428.467H424.633L424.385 129.16C424.248 129.523 424.057 130.002 423.961 130.226C423.864 130.449 423.328 132.002 422.769 133.677C422.211 135.352 421.291 138.047 420.725 139.667C420.159 141.286 419.257 143.935 418.721 145.555C418.184 147.174 417.548 149.138 417.307 149.92C417.067 150.701 416.735 151.798 416.571 152.356C416.407 152.914 416.176 153.75 416.059 154.213C415.942 154.676 415.71 155.107 415.544 155.171C415.358 155.243 415.242 155.169 415.242 154.98C415.242 154.811 415.02 153.968 414.75 153.108C414.479 152.248 414.056 150.859 413.809 150.021C413.563 149.184 413.094 147.676 412.767 146.671C412.441 145.666 412.091 144.661 411.99 144.438C411.89 144.214 411.343 142.661 410.776 140.986C410.208 139.311 409.424 136.982 409.033 135.809C408.641 134.637 408.239 133.494 408.139 133.271C408.039 133.048 407.715 132.134 407.418 131.241C407.122 130.348 406.785 129.365 406.67 129.058L406.459 128.5H402.625H398.791V145.047ZM442.049 145.047V161.594H454.336H466.623V159.259V156.924H456.976H447.33V152.271C447.33 149.712 447.385 147.474 447.453 147.297C447.562 147.012 448.397 146.976 454.764 146.976H461.952V144.844V142.712H454.637H447.322L447.377 137.992L447.431 133.271L456.621 133.218L465.811 133.166V130.833V128.5H453.93H442.049V145.047ZM474.517 128.855C474.503 129.051 474.48 136.497 474.466 145.402L474.442 161.594H477.028H479.615L479.669 155.046L479.722 148.498L483.218 148.443L486.713 148.387L487.075 148.951C487.274 149.26 487.508 149.605 487.596 149.717C487.684 149.828 488.185 150.605 488.709 151.442C489.233 152.28 489.773 153.08 489.908 153.22C490.044 153.36 490.213 153.657 490.283 153.88C490.354 154.103 490.497 154.285 490.601 154.285C490.705 154.285 490.791 154.37 490.791 154.474C490.791 154.579 491.087 155.15 491.45 155.743C491.813 156.337 492.155 156.868 492.212 156.924C492.268 156.98 492.748 157.687 493.278 158.495C493.809 159.304 494.243 160.057 494.243 160.17C494.243 160.283 494.323 160.376 494.422 160.376C494.52 160.376 494.714 160.65 494.852 160.985L495.105 161.594H498.126C499.788 161.594 501.148 161.542 501.148 161.479C501.148 161.416 501.043 161.165 500.914 160.921C500.786 160.677 500.626 160.432 500.558 160.376C500.491 160.32 500.082 159.732 499.648 159.069C499.215 158.407 498.777 157.767 498.676 157.648C498.574 157.529 498.042 156.701 497.492 155.808C496.943 154.914 496.421 154.092 496.333 153.98C496.245 153.868 495.738 153.116 495.208 152.307C494.677 151.499 494.243 150.746 494.243 150.633C494.243 150.52 494.158 150.427 494.054 150.427C493.949 150.427 493.806 150.245 493.736 150.022C493.665 149.8 493.498 149.503 493.364 149.363C493.23 149.222 492.965 148.865 492.775 148.568C492.44 148.043 492.444 148.018 492.923 147.705C493.194 147.527 493.557 147.382 493.728 147.382C493.9 147.382 494.04 147.29 494.04 147.179C494.04 147.067 494.223 146.976 494.446 146.976C494.669 146.976 494.852 146.884 494.852 146.773C494.852 146.661 494.989 146.57 495.157 146.57C495.324 146.57 495.462 146.478 495.462 146.367C495.462 146.255 495.567 146.164 495.696 146.164C495.825 146.164 496.259 145.816 496.661 145.391C497.062 144.966 497.551 144.417 497.746 144.17C497.942 143.924 498.102 143.587 498.102 143.42C498.102 143.254 498.193 143.118 498.305 143.118C498.416 143.118 498.508 142.941 498.508 142.724C498.508 142.507 498.589 142.28 498.689 142.218C498.788 142.157 498.933 141.763 499.01 141.343C499.087 140.924 499.197 139.849 499.254 138.956C499.314 138.026 499.254 136.855 499.114 136.215C498.979 135.601 498.599 134.535 498.269 133.846C497.939 133.156 497.413 132.334 497.101 132.018C496.79 131.702 496.34 131.286 496.102 131.093C495.864 130.9 495.305 130.511 494.859 130.23C494.413 129.948 493.909 129.718 493.739 129.718C493.57 129.718 493.431 129.627 493.431 129.515C493.431 129.403 493.162 129.312 492.833 129.312C492.505 129.312 492.18 129.221 492.111 129.109C492.042 128.997 491.534 128.906 490.982 128.906C490.43 128.906 489.978 128.815 489.978 128.703C489.978 128.571 487.27 128.5 482.261 128.5C475.056 128.5 474.542 128.523 474.517 128.855ZM541.969 145.047V161.594H544.507H547.046V145.047V128.5H544.507H541.969V145.047ZM565.121 128.807C565.121 128.976 565.044 129.273 564.95 129.467C564.855 129.661 564.673 130.024 564.543 130.274C564.414 130.523 564.309 130.912 564.309 131.136C564.309 131.361 564.217 131.545 564.105 131.545C563.994 131.545 563.902 131.819 563.902 132.154C563.902 132.489 563.811 132.764 563.699 132.764C563.588 132.764 563.496 132.974 563.496 133.231C563.496 133.487 563.419 133.784 563.326 133.89C563.232 133.996 563.039 134.403 562.897 134.794C562.755 135.185 562.412 136.098 562.134 136.824C561.855 137.55 561.546 138.302 561.445 138.496C561.345 138.69 561.262 139.033 561.262 139.258C561.262 139.483 561.171 139.667 561.059 139.667C560.947 139.667 560.856 139.89 560.856 140.162C560.856 140.435 560.765 140.714 560.653 140.783C560.541 140.852 560.45 141.132 560.45 141.404C560.45 141.677 560.378 141.9 560.291 141.9C560.204 141.9 560.008 142.334 559.855 142.864C559.703 143.395 559.517 143.92 559.442 144.032C559.366 144.143 559.179 144.646 559.026 145.148C558.873 145.651 558.529 146.565 558.262 147.179C557.994 147.793 557.691 148.454 557.589 148.648C557.487 148.842 557.404 149.23 557.404 149.511C557.404 149.792 557.312 150.021 557.2 150.021C557.089 150.021 556.997 150.198 556.997 150.415C556.997 150.632 556.906 150.866 556.794 150.935C556.683 151.004 556.591 151.265 556.591 151.515C556.591 151.766 556.516 152.057 556.423 152.163C556.331 152.269 556.129 152.767 555.975 153.27C555.821 153.772 555.644 154.229 555.583 154.285C555.522 154.341 555.348 154.752 555.196 155.198C555.044 155.645 554.804 156.285 554.662 156.62C554.521 156.955 554.293 157.549 554.157 157.939C554.021 158.33 553.817 158.878 553.704 159.158C553.59 159.437 553.417 159.824 553.318 160.018C553.219 160.211 553.139 160.554 553.139 160.779C553.139 161.004 553.047 161.188 552.936 161.188C552.824 161.188 552.733 161.279 552.733 161.391C552.733 161.516 553.772 161.594 555.443 161.594H558.154L558.514 160.731C558.712 160.256 558.948 159.685 559.039 159.462C559.13 159.239 559.398 158.462 559.634 157.736C559.87 157.01 560.15 156.258 560.256 156.064C560.363 155.87 560.45 155.572 560.45 155.401C560.45 155.231 560.534 154.933 560.636 154.739C560.738 154.545 560.932 154.089 561.067 153.726L561.312 153.067H568.395C575.343 153.067 575.478 153.074 575.478 153.473C575.478 153.696 575.57 153.879 575.682 153.879C575.793 153.879 575.885 154.063 575.885 154.288C575.885 154.512 575.971 154.855 576.076 155.049C576.181 155.243 576.599 156.315 577.004 157.432C577.41 158.548 577.826 159.621 577.93 159.815C578.034 160.008 578.119 160.358 578.119 160.591C578.119 160.823 578.249 161.144 578.409 161.304C578.631 161.526 579.324 161.594 581.354 161.594C582.814 161.594 584.008 161.552 584.008 161.502C584.008 161.451 583.905 161.154 583.78 160.842C583.654 160.53 583.461 160.046 583.35 159.767C583.239 159.487 583.068 159.1 582.969 158.907C582.87 158.713 582.79 158.37 582.79 158.145C582.79 157.92 582.698 157.736 582.587 157.736C582.475 157.736 582.383 157.462 582.383 157.127C582.383 156.792 582.292 156.518 582.18 156.518C582.069 156.518 581.977 156.29 581.977 156.011C581.977 155.731 581.886 155.503 581.774 155.503C581.662 155.503 581.571 155.319 581.571 155.094C581.571 154.869 581.489 154.527 581.388 154.333C581.288 154.139 580.961 153.341 580.663 152.559C580.364 151.777 579.943 150.747 579.728 150.269C579.513 149.792 579.337 149.221 579.337 149.001C579.337 148.78 579.246 148.6 579.134 148.6C579.022 148.6 578.931 148.326 578.931 147.991C578.931 147.656 578.856 147.382 578.765 147.382C578.673 147.382 578.472 146.919 578.318 146.354C578.164 145.788 577.965 145.28 577.875 145.225C577.786 145.17 577.712 144.992 577.712 144.83C577.712 144.668 577.542 144.148 577.334 143.674C577.126 143.201 576.795 142.402 576.599 141.9C576.403 141.397 576.168 140.804 576.077 140.58C575.986 140.357 575.796 139.809 575.654 139.362C575.512 138.915 575.323 138.463 575.234 138.357C575.145 138.251 575.072 137.96 575.072 137.709C575.072 137.459 574.981 137.198 574.869 137.129C574.757 137.06 574.666 136.826 574.666 136.609C574.666 136.392 574.575 136.215 574.463 136.215C574.351 136.215 574.26 135.941 574.26 135.606C574.26 135.271 574.169 134.997 574.057 134.997C573.945 134.997 573.854 134.872 573.854 134.719C573.854 134.567 573.662 133.95 573.427 133.349C573.192 132.748 572.863 131.891 572.696 131.444C572.528 130.997 572.308 130.473 572.208 130.279C572.108 130.085 572.026 129.788 572.026 129.619C572.026 129.45 571.935 129.312 571.823 129.312C571.711 129.312 571.62 129.129 571.62 128.906C571.62 128.517 571.484 128.5 568.37 128.5C565.604 128.5 565.121 128.546 565.121 128.807ZM590.507 145.047V161.594H602.185H613.862V159.58C613.862 158.473 613.807 157.422 613.739 157.245C613.629 156.959 612.643 156.924 604.701 156.924H595.787V142.712V128.5H593.147H590.507V145.047ZM334.177 133.077C334.662 133.246 335.439 133.577 335.904 133.813C336.368 134.05 336.896 134.413 337.076 134.62C337.257 134.827 337.473 134.997 337.557 134.997C337.64 134.997 338.018 135.335 338.396 135.747C338.774 136.16 339.083 136.609 339.083 136.745C339.083 136.882 339.156 137.024 339.245 137.061C339.334 137.098 339.609 137.562 339.854 138.091C340.101 138.62 340.302 139.176 340.302 139.326C340.302 139.476 340.369 139.666 340.451 139.748C340.533 139.83 340.71 140.416 340.844 141.051C340.978 141.685 341.094 143.463 341.101 145.001C341.108 146.54 341.002 148.39 340.865 149.113C340.728 149.836 340.545 150.427 340.459 150.427C340.372 150.427 340.302 150.601 340.302 150.814C340.302 151.027 340.096 151.598 339.845 152.083C339.593 152.568 339.32 152.996 339.236 153.033C339.152 153.07 339.083 153.239 339.083 153.409C339.083 153.579 338.512 154.256 337.814 154.913C337.116 155.571 336.431 156.11 336.291 156.11C336.151 156.111 336.037 156.203 336.037 156.315C336.037 156.427 335.854 156.518 335.631 156.518C335.407 156.518 335.225 156.61 335.225 156.721C335.225 156.833 334.95 156.924 334.615 156.924C334.28 156.924 334.006 157.016 334.006 157.127C334.006 157.253 332.923 157.33 331.163 157.33C329.403 157.33 328.32 157.253 328.32 157.127C328.32 157.016 328.094 156.924 327.819 156.924C327.544 156.924 326.881 156.69 326.347 156.403C325.812 156.116 324.812 155.293 324.123 154.575C323.435 153.856 322.635 152.794 322.346 152.214C322.057 151.634 321.821 150.995 321.821 150.794C321.821 150.592 321.739 150.427 321.638 150.427C321.538 150.427 321.392 149.993 321.315 149.463C321.238 148.932 321.133 147 321.082 145.168C321.021 142.995 321.063 141.764 321.202 141.625C321.319 141.509 321.415 141.071 321.415 140.653C321.415 140.235 321.506 139.837 321.618 139.768C321.729 139.699 321.821 139.505 321.821 139.337C321.821 139.169 322.069 138.526 322.372 137.907C322.675 137.289 323.48 136.208 324.162 135.506C324.844 134.804 325.873 133.991 326.448 133.699C327.023 133.408 327.674 133.17 327.895 133.17C328.115 133.17 328.352 133.078 328.421 132.967C328.493 132.85 329.554 132.765 330.921 132.767C332.509 132.768 333.587 132.871 334.177 133.077ZM490.791 133.517C491.293 133.741 491.989 134.191 492.337 134.517C492.685 134.842 493.165 135.491 493.403 135.958C493.751 136.639 493.837 137.17 493.837 138.631C493.837 139.634 493.745 140.511 493.634 140.58C493.522 140.649 493.431 140.86 493.431 141.049C493.431 141.238 493.076 141.781 492.642 142.255C492.208 142.73 491.705 143.118 491.525 143.118C491.344 143.118 491.197 143.187 491.197 143.272C491.197 143.356 490.833 143.539 490.388 143.678C489.835 143.85 487.999 143.93 484.6 143.93H479.621V138.584C479.621 135.643 479.689 133.167 479.773 133.081C479.857 132.994 482.164 132.965 484.901 133.016C489.323 133.099 489.978 133.154 490.791 133.517ZM568.79 134.185C568.894 134.185 568.982 134.39 568.985 134.642C568.988 134.893 569.251 135.855 569.568 136.78C569.885 137.706 570.202 138.52 570.273 138.591C570.344 138.661 570.401 138.932 570.401 139.193C570.401 139.453 570.493 139.667 570.604 139.667C570.716 139.667 570.807 139.89 570.807 140.162C570.807 140.435 570.899 140.714 571.01 140.783C571.122 140.852 571.214 141.132 571.214 141.404C571.214 141.677 571.305 141.9 571.417 141.9C571.528 141.9 571.62 142.174 571.62 142.509C571.62 142.844 571.711 143.118 571.823 143.118C571.935 143.118 572.026 143.341 572.026 143.614C572.026 143.886 572.107 144.159 572.206 144.22C572.304 144.281 572.431 144.584 572.488 144.892C572.544 145.201 572.831 146.089 573.125 146.867C573.42 147.645 573.616 148.399 573.56 148.542C573.483 148.745 572.333 148.803 568.389 148.803C565.047 148.803 563.272 148.73 563.184 148.589C563.112 148.471 563.172 147.968 563.319 147.472C563.465 146.976 563.656 146.57 563.744 146.57C563.831 146.57 563.902 146.296 563.902 145.961C563.902 145.626 563.994 145.351 564.105 145.351C564.217 145.351 564.309 145.198 564.309 145.01C564.309 144.822 564.503 144.114 564.74 143.436C564.978 142.759 565.235 142.113 565.312 142.001C565.39 141.89 565.629 141.228 565.845 140.529C566.061 139.832 566.306 139.261 566.39 139.261C566.474 139.261 566.543 139.038 566.543 138.765C566.543 138.492 566.634 138.213 566.746 138.144C566.857 138.075 566.949 137.755 566.949 137.433C566.949 137.111 567.04 136.792 567.152 136.723C567.264 136.654 567.355 136.329 567.355 136C567.355 135.672 567.446 135.403 567.558 135.403C567.67 135.403 567.761 135.17 567.761 134.885C567.761 134.601 567.92 134.075 568.114 133.718L568.466 133.068L568.533 133.626C568.57 133.934 568.686 134.185 568.79 134.185Z" fill="#001746"/>
</svg>
